<svg xmlns="http://www.w3.org/2000/svg" viewBox="0 0 720 360">
  <defs>
    <linearGradient id="bg" x1="0" y1="0" x2="1" y2="1">
      <stop stop-color="#07101f"/>
      <stop offset="1" stop-color="#0e2a33"/>
    </linearGradient>
  </defs>
  <rect width="720" height="360" rx="28" fill="url(#bg)"/>
  <rect x="44" y="44" width="632" height="272" rx="18" fill="#0b1326" stroke="#27415d"/>
  <text x="72" y="92" fill="#edf4ff" font-family="Inter, Arial" font-size="30" font-weight="700">JWT Authentication API</text>
  <rect x="72" y="128" width="250" height="44" rx="8" fill="#101d34" stroke="#27415d"/>
  <text x="92" y="156" fill="#8bffca" font-family="Inter, Arial" font-size="15" font-weight="700">POST /api/login</text>
  <rect x="72" y="190" width="324" height="44" rx="8" fill="#101d34" stroke="#27415d"/>
  <text x="92" y="218" fill="#38bdf8" font-family="Inter, Arial" font-size="15" font-weight="700">GET /api/protected</text>
  <rect x="72" y="252" width="286" height="44" rx="8" fill="#101d34" stroke="#27415d"/>
  <text x="92" y="280" fill="#f5c76b" font-family="Inter, Arial" font-size="15" font-weight="700">POST /api/refresh</text>
  <rect x="456" y="122" width="150" height="150" rx="24" fill="#101d34" stroke="#27415d"/>
  <path d="M500 184v-26c0-18 13-31 31-31s31 13 31 31v26" fill="none" stroke="#38bdf8" stroke-width="16" stroke-linecap="round"/>
  <rect x="486" y="176" width="90" height="72" rx="14" fill="#8bffca"/>
  <circle cx="531" cy="211" r="8" fill="#07101f"/>
</svg>
