<svg xmlns="http://www.w3.org/2000/svg" viewBox="0 0 720 360">
  <defs>
    <linearGradient id="bg" x1="0" y1="0" x2="1" y2="1">
      <stop stop-color="#07101f"/>
      <stop offset="1" stop-color="#172039"/>
    </linearGradient>
  </defs>
  <rect width="720" height="360" rx="28" fill="url(#bg)"/>
  <rect x="38" y="34" width="644" height="292" rx="20" fill="#0b1326" stroke="#27415d"/>
  <text x="58" y="86" fill="#edf4ff" font-family="Inter, Arial" font-size="32" font-weight="700">Inkspire Blog</text>
  <text x="58" y="116" fill="#9dafc8" font-family="Inter, Arial" font-size="16">Publish, moderate and manage content</text>
  <rect x="58" y="154" width="380" height="24" rx="12" fill="#38bdf8" opacity="0.8"/>
  <rect x="58" y="196" width="494" height="14" rx="7" fill="#edf4ff" opacity="0.18"/>
  <rect x="58" y="224" width="454" height="14" rx="7" fill="#edf4ff" opacity="0.18"/>
  <rect x="58" y="252" width="318" height="14" rx="7" fill="#edf4ff" opacity="0.18"/>
  <rect x="478" y="126" width="144" height="142" rx="18" fill="#101d34" stroke="#27415d"/>
  <rect x="500" y="150" width="100" height="14" rx="7" fill="#8bffca"/>
  <rect x="500" y="184" width="72" height="10" rx="5" fill="#edf4ff" opacity="0.2"/>
  <rect x="500" y="210" width="88" height="10" rx="5" fill="#edf4ff" opacity="0.2"/>
  <rect x="500" y="236" width="54" height="10" rx="5" fill="#edf4ff" opacity="0.2"/>
</svg>
