<svg xmlns="http://www.w3.org/2000/svg" viewBox="0 0 720 360">
  <defs>
    <linearGradient id="bg" x1="0" y1="0" x2="1" y2="1">
      <stop stop-color="#07101f"/>
      <stop offset="1" stop-color="#0e2740"/>
    </linearGradient>
    <linearGradient id="accent" x1="0" y1="0" x2="1" y2="1">
      <stop stop-color="#38bdf8"/>
      <stop offset="1" stop-color="#8bffca"/>
    </linearGradient>
  </defs>
  <rect width="720" height="360" rx="28" fill="url(#bg)"/>
  <rect x="34" y="34" width="652" height="292" rx="20" fill="#0b1326" stroke="#27415d"/>
  <rect x="34" y="34" width="652" height="54" rx="20" fill="#111d34"/>
  <circle cx="66" cy="61" r="7" fill="#38bdf8"/>
  <circle cx="90" cy="61" r="7" fill="#8bffca"/>
  <circle cx="114" cy="61" r="7" fill="#f5c76b"/>
  <text x="54" y="130" fill="#edf4ff" font-family="Inter, Arial" font-size="30" font-weight="700">AI Finance Manager</text>
  <text x="54" y="160" fill="#9dafc8" font-family="Inter, Arial" font-size="16">Income, expenses, budgets and smart insights</text>
  <rect x="54" y="196" width="172" height="76" rx="14" fill="#101d34" stroke="#27415d"/>
  <text x="76" y="226" fill="#9dafc8" font-family="Inter, Arial" font-size="14">Balance</text>
  <text x="76" y="256" fill="#8bffca" font-family="Inter, Arial" font-size="28" font-weight="700">$12.4k</text>
  <rect x="252" y="196" width="172" height="76" rx="14" fill="#101d34" stroke="#27415d"/>
  <text x="274" y="226" fill="#9dafc8" font-family="Inter, Arial" font-size="14">Savings</text>
  <text x="274" y="256" fill="#38bdf8" font-family="Inter, Arial" font-size="28" font-weight="700">34%</text>
  <rect x="454" y="118" width="176" height="154" rx="18" fill="#101d34" stroke="#27415d"/>
  <rect x="484" y="218" width="18" height="34" rx="8" fill="url(#accent)"/>
  <rect x="516" y="188" width="18" height="64" rx="8" fill="url(#accent)"/>
  <rect x="548" y="156" width="18" height="96" rx="8" fill="url(#accent)"/>
  <rect x="580" y="176" width="18" height="76" rx="8" fill="url(#accent)"/>
</svg>
