<svg width="1200" height="680" viewBox="0 0 1200 680" fill="none" xmlns="http://www.w3.org/2000/svg">
  <rect width="1200" height="680" fill="#07111f"/>
  <rect width="1200" height="58" fill="#070d19"/>
  <rect x="90" y="16" width="36" height="36" rx="10" fill="url(#icon)"/>
  <path d="M109 23L101 38H110L105 51L119 33H110L116 23H109Z" fill="white"/>
  <text x="138" y="39" fill="#f5f7fb" font-family="Inter, Arial, sans-serif" font-size="18" font-weight="800">Resume</text>
  <text x="213" y="39" fill="#ef4da7" font-family="Inter, Arial, sans-serif" font-size="18" font-weight="800">Analyzer</text>
  <rect x="318" y="13" width="120" height="38" rx="9" fill="url(#active)"/>
  <text x="358" y="38" fill="#07111f" font-family="Inter, Arial, sans-serif" font-size="14" font-weight="800">Dashboard</text>
  <text x="472" y="38" fill="#b8c4d8" font-family="Inter, Arial, sans-serif" font-size="14" font-weight="700">Analyze</text>
  <text x="570" y="38" fill="#b8c4d8" font-family="Inter, Arial, sans-serif" font-size="14" font-weight="700">Builder</text>
  <text x="674" y="38" fill="#b8c4d8" font-family="Inter, Arial, sans-serif" font-size="14" font-weight="700">Interview</text>
  <rect x="892" y="13" width="84" height="38" rx="19" fill="#0e1a30" stroke="#23334f"/>
  <circle cx="914" cy="32" r="13" fill="url(#avatar)"/>
  <text x="935" y="37" fill="#f6f8ff" font-family="Inter, Arial, sans-serif" font-size="13" font-weight="800">Dipali</text>
  <rect x="990" y="13" width="100" height="38" rx="10" fill="#ff5574"/>
  <text x="1024" y="38" fill="white" font-family="Inter, Arial, sans-serif" font-size="13" font-weight="800">Sign Out</text>
  <rect x="105" y="114" width="990" height="354" rx="22" fill="url(#hero)" stroke="#345577"/>
  <rect x="148" y="200" width="160" height="30" rx="15" fill="rgba(255,255,255,0.16)" stroke="rgba(255,255,255,0.28)"/>
  <text x="163" y="220" fill="white" font-family="Inter, Arial, sans-serif" font-size="12" font-weight="800">AI Career Command Center</text>
  <text x="148" y="294" fill="white" font-family="Inter, Arial, sans-serif" font-size="46" font-weight="900">Welcome back, Dipali.</text>
  <text x="148" y="343" fill="#d7e6fb" font-family="Inter, Arial, sans-serif" font-size="20">Analyze resumes, generate tailored versions, and practice interviews</text>
  <text x="148" y="373" fill="#d7e6fb" font-family="Inter, Arial, sans-serif" font-size="20">from one polished workspace.</text>
  <g>
    <rect x="685" y="164" width="174" height="118" rx="10" fill="#172744"/>
    <text x="702" y="236" fill="white" font-family="Inter, Arial, sans-serif" font-size="28" font-weight="900">ATS</text>
    <text x="702" y="261" fill="#c8d3e5" font-family="Inter, Arial, sans-serif" font-size="13">Scoring engine</text>
    <rect x="878" y="164" width="174" height="118" rx="10" fill="#16253c"/>
    <text x="895" y="236" fill="white" font-family="Inter, Arial, sans-serif" font-size="28" font-weight="900">PDF</text>
    <text x="895" y="261" fill="#c8d3e5" font-family="Inter, Arial, sans-serif" font-size="13">Secure upload</text>
    <rect x="685" y="300" width="174" height="118" rx="10" fill="#16253c"/>
    <text x="702" y="372" fill="white" font-family="Inter, Arial, sans-serif" font-size="28" font-weight="900">Role</text>
    <text x="702" y="396" fill="#c8d3e5" font-family="Inter, Arial, sans-serif" font-size="13">Targeted prep</text>
    <rect x="878" y="300" width="174" height="118" rx="10" fill="#102c39"/>
    <text x="895" y="372" fill="white" font-family="Inter, Arial, sans-serif" font-size="28" font-weight="900">AI</text>
    <text x="895" y="396" fill="#c8d3e5" font-family="Inter, Arial, sans-serif" font-size="13">Career coach</text>
  </g>
  <rect x="105" y="492" width="488" height="160" rx="14" fill="#101c2f" stroke="#263d5f"/>
  <rect x="105" y="492" width="488" height="3" fill="url(#cardLine)"/>
  <rect x="128" y="516" width="54" height="54" rx="16" fill="url(#icon)"/>
  <text x="128" y="606" fill="white" font-family="Inter, Arial, sans-serif" font-size="20" font-weight="900">Upload Resume</text>
  <text x="128" y="635" fill="#afbdd3" font-family="Inter, Arial, sans-serif" font-size="14">Upload a PDF and convert it into ATS insights and feedback.</text>
  <rect x="617" y="492" width="488" height="160" rx="14" fill="#101c2f" stroke="#263d5f"/>
  <rect x="617" y="492" width="488" height="3" fill="url(#cardLine)"/>
  <rect x="640" y="516" width="54" height="54" rx="16" fill="url(#icon)"/>
  <text x="640" y="606" fill="white" font-family="Inter, Arial, sans-serif" font-size="20" font-weight="900">Mock Interview</text>
  <text x="640" y="635" fill="#afbdd3" font-family="Inter, Arial, sans-serif" font-size="14">Practice role-specific interviews with AI follow-ups.</text>
  <defs>
    <linearGradient id="icon" x1="90" y1="16" x2="126" y2="52" gradientUnits="userSpaceOnUse">
      <stop stop-color="#18d8f5"/>
      <stop offset="0.5" stop-color="#8e45ff"/>
      <stop offset="1" stop-color="#ff4ca7"/>
    </linearGradient>
    <linearGradient id="active" x1="318" y1="13" x2="438" y2="51" gradientUnits="userSpaceOnUse">
      <stop stop-color="#2ee8dc"/>
      <stop offset="1" stop-color="#ffd928"/>
    </linearGradient>
    <linearGradient id="avatar" x1="901" y1="19" x2="927" y2="45" gradientUnits="userSpaceOnUse">
      <stop stop-color="#16d6f2"/>
      <stop offset="1" stop-color="#7f42ff"/>
    </linearGradient>
    <linearGradient id="hero" x1="105" y1="114" x2="1095" y2="468" gradientUnits="userSpaceOnUse">
      <stop stop-color="#2d6673"/>
      <stop offset="0.42" stop-color="#322c82"/>
      <stop offset="1" stop-color="#006345"/>
    </linearGradient>
    <linearGradient id="cardLine" x1="105" y1="492" x2="593" y2="492" gradientUnits="userSpaceOnUse">
      <stop stop-color="#18d8f5"/>
      <stop offset="0.54" stop-color="#ff72b5"/>
      <stop offset="1" stop-color="#ffd928"/>
    </linearGradient>
  </defs>
</svg>
